<svg
  xmlns="http://www.w3.org/2000/svg"
  viewBox="4 6 240 320"
  width="240"
  height="320"
>
  <!-- 小型锁梁 -->
  <path
    d="M62 100V60C62 34 88 20 124 20C160 20 186 34 186 60V100"
    fill="none"
    stroke="#55BFF2"
    stroke-width="28"
    stroke-linecap="round"
  />

  <!-- 锁体 -->
  <path
    d="M40 86H208A36 36 0 0 1 244 122V290A36 36 0 0 1 208 326H40A36 36 0 0 1 4 290V122A36 36 0 0 1 40 86Z"
    fill="#55BFF2"
  />

  <!-- 白色 T -->
  <path d="M51 146H197V186H150V280H98V186H51Z" fill="#FFFFFF" />
</svg>
